# xmcd CD database file
# Copyright (C) 1996 Ti Kan
#
# Track frame offsets:
#  150
#  5995
#  20742
#  35312
#  38075
#  49665
#  54472
#  60527
#  74760
#  90795
#  93495
#  105430
#  108742
#  114762
#  128252
#  146442
#  148552
#  158310
#  162940
#  168262
#  177232
#  190650
#  193112
#  209947
#
# Disc length: 2902 seconds
#
# Revision: 1
# Processed by: cddbd v1.4b41PL1 Copyright (c) Steve Scherf et al.
# Submitted via: CDWizzard Release:4.13
#
DISCID=420b5418
DTITLE=HANK WILLIAMS - HEALTH and HAPPINESS SHOWS DISC 2
DYEAR=1900
DGENRE=
TTITLE0=HAPPY ROVIN' COWBOY
TTITLE1=A MANSION ON THE HILL
TTITLE2=THERE'LL BE NO TEARDROPS TONIGHT
TTITLE3=WAGNER
TTITLE4=THE PRODIGAL SON
TTITLE5=SALLY GOODIN'
TTITLE6=HAPPY ROVIN' COWBOY
TTITLE7=PAN AMERICAN
TTITLE8=LOVESICK BLUES
TTITLE9=ARKANSAS TRAVELER
TTITLE10=I SAW THE LIGHT
TTITLE11=SALLY GOODIN'
TTITLE12=HAPPY ROVIN' COWBOY
TTITLE13=MIND YOUR OWN BUSINESS
TTITLE14=WEDDING BELLS
TTITLE15=COTTEN-EYED JOE
TTITLE16=I'VE JUST TOLD MOMMA GOODBYE
TTITLE17=SALLY GOODIN'
TTITLE18=HAPPY ROVIN' COWBOY
TTITLE19=I CAN'T GET YOU OFF OF MY MIND
TTITLE20=I'M SO LONESOME I COULD CRY
TTITLE21=FISHERMAN'S HORNPIPE
TTITLE22=THY BURDENS ARE GREATER THAN MINE
TTITLE23=SALLY GOODIN'
EXTD=
EXTT0=
EXTT1=
EXTT2=
EXTT3=
EXTT4=
EXTT5=
EXTT6=
EXTT7=
EXTT8=
EXTT9=
EXTT10=
EXTT11=
EXTT12=
EXTT13=
EXTT14=
EXTT15=
EXTT16=
EXTT17=
EXTT18=
EXTT19=
EXTT20=
EXTT21=
EXTT22=
EXTT23=
PLAYORDER=
